<?xml version="1.0" encoding="utf-8"?>
<!-- Generator: Adobe Illustrator 16.0.0, SVG Export Plug-In . SVG Version: 6.00 Build 0)  -->
<!DOCTYPE svg PUBLIC "-//W3C//DTD SVG 1.1//EN" "http://www.w3.org/Graphics/SVG/1.1/DTD/svg11.dtd">
<svg version="1.1" id="Layer_1" xmlns="http://www.w3.org/2000/svg" xmlns:xlink="http://www.w3.org/1999/xlink" x="0px" y="0px"
	 width="34.821px" height="35px" viewBox="-8.834 0 34.821 35" enable-background="new -8.834 0 34.821 35" xml:space="preserve">
<g>
	<g>
		<path fill="#1C1C1C" d="M0.004,2.397l1.022-0.576L0.943,1.674C2.39,0.938,3.497,0.642,3.497,0.642
			c5.146-1.534,7.642,7.527,7.642,7.527c2.987,4.197,6.397,11.333,6.397,11.333c0.272-0.051,1.15-1.209,1.15-1.209
			c0.346,0.59-0.254,1.801-0.254,1.801c2.108,3.1,2.725,4.844,2.725,4.844c2.029,4.868-4.089,7.812-4.089,7.812
			s-5.693,3.698-8.795-0.567c0,0-1.173-1.432-2.724-4.844c0,0-1.348-0.119-1.673-0.719c0,0,1.448-0.147,1.632-0.356
			c0,0-4.325-6.621-6.36-11.354c0,0-6.445-6.839-2.458-10.441c0,0,0.827-0.791,2.207-1.646L-1.02,2.97l1.021-0.574L0.004,2.397z"/>
	</g>
	<g>
		<polygon fill="#808285" points="6.175,26.777 4.334,22.064 2.717,19.186 1.097,16.308 -1.975,12.287 		"/>
	</g>
	<g>
		<path fill="#414042" d="M0.272,12.539c2.346,3.622,5.392,10.793,5.422,10.868l-0.125,0.051c-0.032-0.068-3.074-7.234-5.413-10.844
			L0.272,12.539z"/>
	</g>
	<g>
		<path fill="#414042" d="M6.598,27.718l0.082,0.108c-0.401,0.296,0.568,2.053,1.274,3.091c1.071,1.636,2.458,1.888,2.471,1.891
			l-0.022,0.136c-0.06-0.012-1.457-0.264-2.562-1.951C7.646,30.708,5.961,28.187,6.598,27.718z"/>
	</g>
	<g>
		<path fill="#414042" d="M5.56,26.22c0.222,0.253,0.291,0.569,0.314,0.707l0.338-0.038l0.021,0.041
			c1.674,3.298,5.552,5.676,5.591,5.698c2.108,1.312,4.913-0.396,4.941-0.414c0.034-0.02,2.95-1.526,2.926-4.007
			c0-0.048-0.016-4.596-1.964-7.74l-0.024-0.041l0.212-0.269c-0.11-0.091-0.346-0.314-0.443-0.636l0.13-0.042
			c0.116,0.374,0.443,0.606,0.448,0.609l0.058,0.041l-0.237,0.304c1.941,3.176,1.958,7.725,1.956,7.77
			c0.026,2.567-2.965,4.114-2.994,4.129c-0.025,0.017-2.899,1.766-5.079,0.411c-0.037-0.021-3.916-2.398-5.619-5.709l-0.385,0.047
			l-0.006-0.069c0.001-0.007-0.028-0.409-0.287-0.7L5.56,26.22z"/>
	</g>
	<g>
		<polygon fill="#808285" points="17.629,20.338 14.558,16.316 12.938,13.438 11.321,10.561 9.479,5.846 		"/>
	</g>
	<g opacity="0.8">
		
			<ellipse transform="matrix(0.1081 -0.9941 0.9941 0.1081 3.7085 7.5805)" fill="#ED1C24" cx="6.079" cy="1.723" rx="0.524" ry="1.128"/>
	</g>
	<g opacity="0.8">
		
			<ellipse transform="matrix(0.9056 0.4241 -0.4241 0.9056 2.7177 2.2654)" fill="#ED1C24" cx="-3.73" cy="7.238" rx="0.524" ry="1.129"/>
	</g>
	<g>
		<path fill="#414042" d="M8.508,7.87l0.124-0.059c1.869,3.875,6.448,10.209,6.495,10.273l-0.11,0.08
			C14.97,18.101,10.384,11.756,8.508,7.87z"/>
	</g>
	<g>
		<path fill="#414042" d="M9.479,5.846c0,0-0.221-0.233-0.645-0.6C8.622,5.062,8.359,4.845,8.048,4.611
			C7.891,4.494,7.724,4.373,7.542,4.249c-0.089-0.065-0.18-0.125-0.275-0.192C7.174,3.989,7.075,3.926,6.975,3.861
			C6.572,3.602,6.122,3.345,5.623,3.116C5.126,2.89,4.58,2.694,3.996,2.572C3.415,2.454,2.792,2.416,2.175,2.498
			C1.558,2.576,0.942,2.782,0.396,3.091C0.26,3.176,0.121,3.259-0.013,3.345c-0.122,0.097-0.254,0.184-0.373,0.286
			C-0.624,3.839-0.849,4.059-1.04,4.305c-0.391,0.485-0.681,1.036-0.884,1.596c-0.198,0.562-0.314,1.13-0.381,1.672
			C-2.369,8.118-2.382,8.637-2.37,9.117c0.005,0.239,0.023,0.47,0.036,0.686c0.01,0.218,0.027,0.426,0.047,0.618
			c0.038,0.389,0.086,0.727,0.134,1.003c0.093,0.552,0.177,0.865,0.177,0.865s-0.098-0.307-0.224-0.856
			c-0.061-0.274-0.129-0.61-0.188-0.998c-0.031-0.193-0.059-0.401-0.081-0.62c-0.022-0.22-0.033-0.452-0.039-0.695
			C-2.52,8.637-2.506,8.109-2.44,7.561c0.066-0.552,0.185-1.13,0.389-1.703c0.206-0.572,0.502-1.137,0.903-1.639
			c0.196-0.25,0.429-0.477,0.674-0.689C-0.35,3.423-0.214,3.33-0.084,3.231C0.05,3.142,0.187,3.06,0.323,2.977
			c0.572-0.322,1.198-0.529,1.833-0.613c0.637-0.084,1.272-0.043,1.868,0.077C4.62,2.565,5.176,2.766,5.681,2.994
			c0.503,0.231,0.962,0.493,1.367,0.754C7.252,3.88,7.446,4.009,7.622,4.141C7.799,4.275,7.96,4.406,8.11,4.532
			c0.302,0.253,0.554,0.485,0.756,0.68C9.273,5.602,9.479,5.846,9.479,5.846z"/>
	</g>
	<g>
		<path fill="#414042" d="M18.212,21.188c0.732-0.304,2.011,2.448,2.152,2.764c0.865,1.817,0.436,3.099,0.417,3.152l-0.13-0.045
			c0.007-0.014,0.431-1.287-0.409-3.051c-0.521-1.144-1.519-2.885-1.979-2.695L18.212,21.188z"/>
	</g>
	<g>
		
			<ellipse transform="matrix(-0.109 0.994 -0.994 -0.109 45.1208 26.0398)" fill="#F1F2F2" cx="10.89" cy="33.242" rx="0.524" ry="1.127"/>
	</g>
	<g>
		
			<ellipse transform="matrix(-0.9062 -0.4228 0.4228 -0.9062 27.7349 61.6015)" fill="#F1F2F2" cx="20.699" cy="27.725" rx="0.523" ry="1.127"/>
	</g>
	<g>
		
			<linearGradient id="SVGID_1_" gradientUnits="userSpaceOnUse" x1="-0.0044" y1="-2.9028" x2="-0.0044" y2="5.2964" gradientTransform="matrix(-0.8717 0.4901 0.4901 0.8717 11.679 23.1717)">
			<stop  offset="0" style="stop-color:#414042"/>
			<stop  offset="1" style="stop-color:#939598"/>
		</linearGradient>
		<path fill="url(#SVGID_1_)" d="M10.674,21.373c2.813-1.66,4.421-3.451,4.421-3.451c0.997,1.632,3.204,4.258,3.204,4.258
			c0.046,3.35-4.021,5.605-4.021,5.605s-4.041,2.303-6.878,0.522c0,0-1.095-3.251-1.973-4.952
			C5.428,23.356,7.792,22.915,10.674,21.373z"/>
	</g>
	<g>
		
			<linearGradient id="SVGID_2_" gradientUnits="userSpaceOnUse" x1="-0.0054" y1="-21.4404" x2="-0.0054" y2="-14.7671" gradientTransform="matrix(-0.8717 0.4901 0.4901 0.8717 11.679 23.1717)">
			<stop  offset="0" style="stop-color:#939598"/>
			<stop  offset="1" style="stop-color:#414042"/>
		</linearGradient>
		<path fill="url(#SVGID_2_)" d="M1.175,4.481C3.833,2.96,5.989,3.445,5.989,3.445l2.714,4.458C7.444,8.034,4.166,9.801,4.166,9.801
			s-3.212,1.884-3.978,2.891l-2.399-4.635C-2.211,8.057-1.505,5.962,1.175,4.481z"/>
	</g>
</g>
</svg>
