<?xml version="1.0" encoding="utf-8"?>
<!-- Generator: Adobe Illustrator 16.0.0, SVG Export Plug-In . SVG Version: 6.00 Build 0)  -->
<!DOCTYPE svg PUBLIC "-//W3C//DTD SVG 1.1//EN" "http://www.w3.org/Graphics/SVG/1.1/DTD/svg11.dtd">
<svg version="1.1" id="Layer_1" xmlns="http://www.w3.org/2000/svg" xmlns:xlink="http://www.w3.org/1999/xlink" x="0px" y="0px"
	 width="33.726px" height="35px" viewBox="-8.518 0 33.726 35" enable-background="new -8.518 0 33.726 35" xml:space="preserve">
<g>
	<g>
		<path fill="#1C1C1C" d="M-6.56,26.079l-0.581-1.019l-0.148,0.084c-0.744-1.443-1.047-2.549-1.047-2.549
			c-1.563-5.137,7.483-7.685,7.483-7.685c4.18-3.012,11.296-6.461,11.296-6.461c-0.051-0.273-1.215-1.144-1.215-1.144
			c0.588-0.349,1.803,0.243,1.803,0.243c3.087-2.125,4.828-2.751,4.828-2.751c4.855-2.057,7.834,4.043,7.834,4.043
			s3.73,5.673-0.517,8.8c0,0-1.425,1.179-4.828,2.751c0,0-0.111,1.348-0.709,1.677c0,0-0.156-1.446-0.365-1.629
			c0,0-6.597,4.362-11.318,6.425c0,0-6.803,6.484-10.427,2.519c0,0-0.795-0.822-1.659-2.198l0.148-0.085l-0.58-1.019L-6.56,26.079z"
			/>
	</g>
	<g>
		<polygon fill="#808285" points="17.784,19.77 13.082,21.636 10.213,23.271 7.344,24.906 3.341,28.001 		"/>
	</g>
	<g>
		<path fill="#414042" d="M3.58,25.753c3.607-2.367,10.763-5.454,10.836-5.484l0.052,0.124c-0.069,0.032-7.217,3.116-10.813,5.476
			L3.58,25.753z"/>
	</g>
	<g>
		<path fill="#414042" d="M18.723,19.341l0.108-0.083c0.298,0.399,2.049-0.58,3.084-1.292c1.628-1.081,1.873-2.469,1.875-2.482
			l0.136,0.022c-0.011,0.06-0.256,1.458-1.936,2.573C21.707,18.275,19.195,19.976,18.723,19.341z"/>
	</g>
	<g>
		<path fill="#414042" d="M17.23,20.388c0.251-0.224,0.567-0.295,0.705-0.318l-0.04-0.338l0.041-0.022
			c3.289-1.692,5.643-5.583,5.666-5.624c1.299-2.116-0.425-4.91-0.441-4.938c-0.02-0.035-1.545-2.941-4.025-2.903
			c-0.047,0.001-4.595,0.042-7.728,2.008l-0.041,0.025l-0.271-0.21c-0.09,0.11-0.312,0.346-0.633,0.446l-0.042-0.13
			c0.373-0.118,0.604-0.447,0.606-0.452l0.041-0.059l0.305,0.237c3.165-1.96,7.713-2.002,7.758-2.001
			c2.567-0.041,4.132,2.941,4.146,2.97c0.017,0.025,1.782,2.889,0.44,5.077c-0.021,0.038-2.376,3.93-5.677,5.652l0.049,0.384
			l-0.07,0.006c-0.006-0.001-0.408,0.031-0.698,0.291L17.23,20.388z"/>
	</g>
	<g>
		<polygon fill="#808285" points="11.279,8.352 7.275,11.446 4.406,13.082 1.538,14.716 -3.166,16.583 		"/>
	</g>
	<g opacity="0.8">
		
			<ellipse transform="matrix(-0.9947 -0.1025 0.1025 -0.9947 -16.5506 39.1648)" fill="#ED1C24" cx="-7.269" cy="20.008" rx="0.524" ry="1.128"/>
	</g>
	<g opacity="0.8">
		
			<ellipse transform="matrix(0.4183 -0.9083 0.9083 0.4183 -28.0423 15.7845)" fill="#ED1C24" cx="-1.698" cy="29.786" rx="0.524" ry="1.128"/>
	</g>
	<g>
		<path fill="#414042" d="M-1.136,17.544l-0.059-0.124c3.864-1.891,10.172-6.506,10.235-6.554l0.081,0.111
			C9.057,11.024,2.74,15.646-1.136,17.544z"/>
	</g>
	<g>
		<path fill="#414042" d="M-3.166,16.583c0,0-0.232,0.223-0.597,0.648c-0.183,0.214-0.398,0.479-0.63,0.791
			c-0.116,0.157-0.237,0.325-0.359,0.508c-0.064,0.089-0.125,0.181-0.19,0.276c-0.067,0.093-0.13,0.192-0.194,0.293
			c-0.257,0.404-0.511,0.856-0.737,1.356c-0.223,0.498-0.416,1.046-0.534,1.63c-0.115,0.582-0.149,1.204-0.064,1.822
			c0.082,0.616,0.292,1.23,0.603,1.775c0.086,0.135,0.17,0.273,0.257,0.406c0.097,0.122,0.185,0.254,0.288,0.372
			c0.209,0.236,0.43,0.46,0.678,0.649c0.488,0.389,1.04,0.676,1.601,0.875c0.562,0.195,1.132,0.308,1.673,0.371
			c0.546,0.062,1.064,0.071,1.545,0.058c0.239-0.007,0.469-0.026,0.686-0.04c0.218-0.012,0.425-0.03,0.618-0.051
			c0.389-0.04,0.727-0.09,1.002-0.14c0.552-0.097,0.863-0.183,0.863-0.183s-0.305,0.101-0.854,0.229
			c-0.274,0.062-0.609,0.133-0.996,0.193c-0.194,0.032-0.402,0.062-0.62,0.084c-0.221,0.023-0.452,0.035-0.695,0.042
			c-0.483,0.017-1.011,0.005-1.56-0.057c-0.553-0.063-1.132-0.179-1.706-0.38c-0.573-0.202-1.139-0.495-1.644-0.894
			c-0.252-0.195-0.479-0.427-0.694-0.671c-0.106-0.123-0.201-0.258-0.299-0.387c-0.09-0.134-0.173-0.271-0.257-0.406
			c-0.325-0.57-0.536-1.194-0.623-1.829c-0.088-0.636-0.05-1.271,0.066-1.868c0.121-0.597,0.318-1.154,0.544-1.661
			c0.228-0.505,0.486-0.965,0.746-1.371c0.13-0.205,0.259-0.399,0.389-0.576c0.132-0.178,0.263-0.34,0.388-0.49
			c0.251-0.303,0.482-0.557,0.676-0.76C-3.408,16.792-3.166,16.583-3.166,16.583z"/>
	</g>
	<g>
		<path fill="#414042" d="M12.126,7.765c-0.307-0.731,2.438-2.025,2.752-2.169c1.812-0.875,3.096-0.453,3.15-0.435l-0.045,0.13
			c-0.013-0.007-1.289-0.422-3.048,0.427c-1.141,0.528-2.876,1.535-2.684,1.995L12.126,7.765z"/>
	</g>
	<g>
		
			<ellipse transform="matrix(0.9946 0.1034 -0.1034 0.9946 1.6821 -2.4235)" fill="#F1F2F2" cx="24.222" cy="15.017" rx="0.524" ry="1.127"/>
	</g>
	<g>
		
			<ellipse transform="matrix(-0.4173 0.9088 -0.9088 -0.4173 31.1919 -9.5226)" fill="#F1F2F2" cx="18.649" cy="5.239" rx="0.523" ry="1.127"/>
	</g>
	<g>
		
			<linearGradient id="SVGID_1_" gradientUnits="userSpaceOnUse" x1="-0.0063" y1="-2.9019" x2="-0.0063" y2="5.2959" gradientTransform="matrix(0.4951 0.8688 0.8688 -0.4951 14.1489 14.2871)">
			<stop  offset="0" style="stop-color:#414042"/>
			<stop  offset="1" style="stop-color:#939598"/>
		</linearGradient>
		<path fill="url(#SVGID_1_)" d="M12.354,15.301C10.679,12.497,8.878,10.9,8.878,10.9c1.627-1.007,4.24-3.229,4.24-3.229
			c3.35-0.064,5.628,3.989,5.628,3.989s2.326,4.027,0.562,6.875c0,0-3.244,1.113-4.94,2.001
			C14.368,20.535,13.913,18.174,12.354,15.301z"/>
	</g>
	<g>
		
			<linearGradient id="SVGID_2_" gradientUnits="userSpaceOnUse" x1="-0.0068" y1="-21.4404" x2="-0.0068" y2="-14.7671" gradientTransform="matrix(0.4951 0.8688 0.8688 -0.4951 14.1489 14.2871)">
			<stop  offset="0" style="stop-color:#939598"/>
			<stop  offset="1" style="stop-color:#414042"/>
		</linearGradient>
		<path fill="url(#SVGID_2_)" d="M-4.483,24.896c-1.536-2.65-1.063-4.808-1.063-4.808l4.441-2.74
			c0.139,1.258,1.924,4.526,1.924,4.526s1.903,3.202,2.913,3.961l-4.621,2.426C-0.888,28.262-2.986,27.568-4.483,24.896z"/>
	</g>
</g>
</svg>
