<?xml version="1.0" encoding="utf-8"?>
<!-- Generator: Adobe Illustrator 16.0.0, SVG Export Plug-In . SVG Version: 6.00 Build 0)  -->
<!DOCTYPE svg PUBLIC "-//W3C//DTD SVG 1.1//EN" "http://www.w3.org/Graphics/SVG/1.1/DTD/svg11.dtd">
<svg version="1.1" id="Layer_1" xmlns="http://www.w3.org/2000/svg" xmlns:xlink="http://www.w3.org/1999/xlink" x="0px" y="0px"
	 width="34.821px" height="35px" viewBox="-8.834 0 34.821 35" enable-background="new -8.834 0 34.821 35" xml:space="preserve">
<g>
	<g>
		<path fill="#1C1C1C" d="M-6.422,8.686l0.596-1.01l-0.146-0.086c0.884-1.362,1.693-2.173,1.693-2.173
			C-0.594,1.509,6.106,8.1,6.106,8.1c4.688,2.135,11.215,6.603,11.215,6.603c0.211-0.18,0.391-1.623,0.391-1.623
			c0.594,0.337,0.683,1.686,0.683,1.686c3.377,1.626,4.784,2.827,4.784,2.827c4.195,3.196,0.376,8.808,0.376,8.808
			s-3.074,6.054-7.896,3.917c0,0-1.732-0.651-4.785-2.827c0,0-1.226,0.572-1.808,0.217c0,0,1.179-0.854,1.233-1.126
			c0,0-7.061-3.562-11.194-6.639c0,0-9.005-2.689-7.359-7.804c0,0,0.319-1.099,1.085-2.531l0.148,0.086l0.596-1.009L-6.422,8.686z"
			/>
	</g>
	<g>
		<polygon fill="#808285" points="11.135,26.691 7.181,23.535 4.338,21.854 1.495,20.176 -3.178,18.235 		"/>
	</g>
	<g>
		<path fill="#414042" d="M-1.107,17.327c3.845,1.959,10.075,6.639,10.138,6.688l-0.083,0.106
			c-0.062-0.044-6.286-4.721-10.119-6.672L-1.107,17.327z"/>
	</g>
	<g>
		<path fill="#414042" d="M11.973,27.294l0.125,0.053c-0.199,0.457,1.521,1.491,2.651,2.036c1.746,0.879,3.073,0.401,3.086,0.397
			l0.049,0.129c-0.058,0.02-1.394,0.502-3.195-0.404C14.378,29.356,11.656,28.019,11.973,27.294z"/>
	</g>
	<g>
		<path fill="#414042" d="M10.323,26.518c0.318,0.107,0.537,0.347,0.626,0.454l0.273-0.202l0.039,0.024
			c3.102,2.016,7.648,2.13,7.694,2.13c2.481,0.078,4.053-2.805,4.068-2.834c0.021-0.034,1.788-2.8,0.524-4.935
			c-0.024-0.041-2.316-3.969-5.578-5.713l-0.042-0.023l0.049-0.339c-0.141-0.023-0.456-0.099-0.702-0.328l0.092-0.102
			c0.288,0.266,0.688,0.302,0.693,0.303l0.07,0.007l-0.054,0.382c3.271,1.775,5.565,5.703,5.586,5.743
			c1.31,2.209-0.504,5.046-0.521,5.073c-0.014,0.027-1.625,2.981-4.189,2.901c-0.043,0-4.591-0.113-7.724-2.125l-0.31,0.233
			l-0.04-0.058c-0.002-0.006-0.229-0.34-0.599-0.462L10.323,26.518z"/>
	</g>
	<g>
		<polygon fill="#808285" points="17.82,15.379 13.147,13.438 10.304,11.758 7.462,10.079 3.507,6.921 		"/>
	</g>
	<g opacity="0.8">
		
			<ellipse transform="matrix(-0.4046 -0.9145 0.9145 -0.4046 -6.7353 5.731)" fill="#ED1C24" cx="-1.502" cy="5.058" rx="0.524" ry="1.128"/>
	</g>
	<g opacity="0.8">
		
			<ellipse transform="matrix(0.9962 -0.0867 0.0867 0.9962 -1.3052 -0.5709)" fill="#ED1C24" cx="-7.228" cy="14.746" rx="0.524" ry="1.128"/>
	</g>
	<g>
		<path fill="#414042" d="M3.68,9.16l0.078-0.113c3.559,2.417,10.696,5.604,10.768,5.635l-0.056,0.125
			C14.398,14.775,7.251,11.583,3.68,9.16z"/>
	</g>
	<g>
		<path fill="#414042" d="M3.507,6.921c0,0-0.309-0.091-0.859-0.196C2.372,6.673,2.035,6.617,1.649,6.57
			c-0.194-0.022-0.4-0.044-0.619-0.06C0.92,6.499,0.811,6.492,0.695,6.482C0.582,6.47,0.464,6.465,0.345,6.459
			C-0.134,6.437-0.652,6.44-1.199,6.492c-0.543,0.053-1.115,0.158-1.68,0.345c-0.562,0.189-1.12,0.468-1.614,0.849
			c-0.495,0.376-0.924,0.863-1.243,1.404C-5.81,9.231-5.889,9.373-5.961,9.514c-0.057,0.145-0.128,0.287-0.18,0.434
			c-0.102,0.299-0.187,0.603-0.228,0.911c-0.095,0.616-0.07,1.238,0.035,1.824c0.11,0.585,0.295,1.136,0.508,1.638
			c0.217,0.504,0.466,0.959,0.716,1.369c0.125,0.205,0.255,0.395,0.375,0.576c0.118,0.184,0.237,0.354,0.351,0.511
			c0.228,0.318,0.438,0.586,0.619,0.801c0.357,0.431,0.586,0.66,0.586,0.66s-0.239-0.216-0.623-0.628
			c-0.19-0.207-0.417-0.463-0.662-0.77c-0.124-0.152-0.252-0.318-0.38-0.496c-0.13-0.179-0.254-0.375-0.381-0.582
			c-0.253-0.412-0.506-0.875-0.724-1.383c-0.219-0.511-0.407-1.071-0.517-1.669c-0.109-0.598-0.135-1.235-0.04-1.871
			c0.044-0.315,0.132-0.627,0.238-0.935C-6.214,9.75-6.144,9.602-6.08,9.452c0.071-0.145,0.149-0.284,0.225-0.425
			c0.334-0.565,0.771-1.058,1.279-1.448c0.509-0.392,1.079-0.675,1.655-0.87c0.578-0.191,1.16-0.296,1.712-0.352
			c0.551-0.053,1.08-0.056,1.561-0.032c0.243,0.011,0.475,0.026,0.693,0.052c0.22,0.027,0.426,0.06,0.618,0.094
			C2.051,6.539,2.386,6.614,2.658,6.68C3.206,6.814,3.507,6.921,3.507,6.921z"/>
	</g>
	<g>
		<path fill="#414042" d="M18.751,15.823c0.482-0.629,2.968,1.111,3.248,1.313c1.659,1.139,1.93,2.463,1.94,2.519l-0.135,0.026
			c-0.001-0.015-0.272-1.329-1.883-2.435c-1.024-0.728-2.76-1.735-3.063-1.34L18.751,15.823z"/>
	</g>
	<g>
		
			<ellipse transform="matrix(0.4042 0.9147 -0.9147 0.4042 38.3639 0.9469)" fill="#F1F2F2" cx="18.455" cy="29.923" rx="0.524" ry="1.127"/>
	</g>
	<g>
		
			<ellipse transform="matrix(-0.9961 0.0887 -0.0887 -0.9961 50.0575 38.2437)" fill="#F1F2F2" cx="24.179" cy="20.234" rx="0.523" ry="1.127"/>
	</g>
	<g>
		
			<linearGradient id="SVGID_1_" gradientUnits="userSpaceOnUse" x1="-0.0054" y1="-2.9019" x2="-0.0054" y2="5.2974" gradientTransform="matrix(-0.5087 0.8609 0.8609 0.5087 14.0909 20.8138)">
			<stop  offset="0" style="stop-color:#414042"/>
			<stop  offset="1" style="stop-color:#939598"/>
		</linearGradient>
		<path fill="url(#SVGID_1_)" d="M12.32,19.761c1.604-2.847,2.097-5.202,2.097-5.202c1.682,0.913,4.907,2.079,4.907,2.079
			c1.718,2.876-0.671,6.866-0.671,6.866s-2.343,4.018-5.69,3.898c0,0-2.576-2.265-4.188-3.297
			C8.774,24.105,10.6,22.539,12.32,19.761z"/>
	</g>
	<g>
		
			<linearGradient id="SVGID_2_" gradientUnits="userSpaceOnUse" x1="-0.0059" y1="-21.439" x2="-0.0059" y2="-14.7651" gradientTransform="matrix(-0.5087 0.8609 0.8609 0.5087 14.0909 20.8138)">
			<stop  offset="0" style="stop-color:#939598"/>
			<stop  offset="1" style="stop-color:#414042"/>
		</linearGradient>
		<path fill="url(#SVGID_2_)" d="M-4.364,9.902c1.539-2.648,3.647-3.309,3.647-3.309l4.583,2.497
			C2.842,9.835,0.89,13.007,0.89,13.007s-1.836,3.241-1.994,4.495l-4.399-2.808C-5.503,14.693-5.941,12.527-4.364,9.902z"/>
	</g>
</g>
</svg>
