<?xml version="1.0" encoding="utf-8"?>
<!-- Generator: Adobe Illustrator 16.0.0, SVG Export Plug-In . SVG Version: 6.00 Build 0)  -->
<!DOCTYPE svg PUBLIC "-//W3C//DTD SVG 1.1//EN" "http://www.w3.org/Graphics/SVG/1.1/DTD/svg11.dtd">
<svg version="1.1" id="Layer_1" xmlns="http://www.w3.org/2000/svg" xmlns:xlink="http://www.w3.org/1999/xlink" x="0px" y="0px"
	 width="22.807px" height="35px" viewBox="-2.875 0 22.807 35" enable-background="new -2.875 0 22.807 35" xml:space="preserve">
<g>
	<g>
		<path fill="#1C1C1C" d="M2.565,33.782l-1.103-0.401l-0.058,0.16c-1.501-0.619-2.447-1.267-2.447-1.267
			c-4.515-2.905,0.734-10.701,0.734-10.701c1.239-5,4.434-12.235,4.434-12.235C3.91,9.163,2.458,9.252,2.458,9.252
			C2.682,8.606,3.99,8.271,3.99,8.271C4.97,4.653,5.892,3.05,5.892,3.05c2.372-4.71,8.589-1.985,8.589-1.985
			s6.515,1.913,5.299,7.044c0,0-0.323,1.821-1.901,5.221c0,0,0.787,1.1,0.544,1.737c0,0-1.055-1.001-1.332-1.005
			c0,0-2.208,7.594-4.475,12.221c0,0-0.992,9.346-6.321,8.666c0,0-1.139-0.112-2.687-0.603l0.058-0.16l-1.102-0.402L2.565,33.782z"
			/>
	</g>
	<g>
		<polygon fill="#808285" points="17.046,13.221 14.668,17.687 13.538,20.789 12.408,23.892 11.357,28.842 		"/>
	</g>
	<g>
		<path fill="#414042" d="M10.086,26.974c1.22-4.14,4.679-11.123,4.714-11.193l0.121,0.062c-0.033,0.069-3.488,7.044-4.704,11.17
			L10.086,26.974z"/>
	</g>
	<g>
		<path fill="#414042" d="M17.484,12.287l0.029-0.134c0.485,0.112,1.187-1.767,1.516-2.979c0.542-1.877-0.169-3.095-0.176-3.107
			l0.117-0.07c0.031,0.052,0.749,1.277,0.188,3.214C19.07,9.544,18.255,12.466,17.484,12.287z"/>
	</g>
	<g>
		<path fill="#414042" d="M17.023,14.051c0.047-0.333,0.242-0.592,0.332-0.699l-0.25-0.231l0.018-0.044
			c1.413-3.418,0.69-7.908,0.683-7.954c-0.379-2.454-3.501-3.47-3.531-3.48c-0.037-0.014-3.081-1.244-4.948,0.39
			C9.291,2.064,5.851,5.038,4.733,8.564L4.718,8.609L4.376,8.624c0.003,0.142-0.014,0.466-0.194,0.75L4.066,9.302
			c0.208-0.332,0.171-0.732,0.17-0.736L4.229,8.494l0.386-0.017C5.76,4.936,9.201,1.961,9.236,1.933
			c1.932-1.691,5.053-0.43,5.084-0.417c0.028,0.009,3.229,1.05,3.62,3.586c0.007,0.043,0.73,4.534-0.672,7.983l0.285,0.261
			l-0.051,0.05c-0.004,0.003-0.29,0.288-0.344,0.673L17.023,14.051z"/>
	</g>
	<g>
		<polygon fill="#808285" points="4.699,8.724 3.648,13.673 2.518,16.776 1.388,19.878 -0.99,24.345 		"/>
	</g>
	<g opacity="0.8">
		
			<ellipse transform="matrix(-0.825 0.5652 -0.5652 -0.825 13.2619 55.1134)" fill="#ED1C24" cx="-1.904" cy="29.61" rx="0.524" ry="1.127"/>
	</g>
	<g opacity="0.8">
		
			<ellipse transform="matrix(-0.2687 -0.9632 0.9632 -0.2687 -21.2315 50.8072)" fill="#ED1C24" cx="8.67" cy="33.463" rx="0.524" ry="1.127"/>
	</g>
	<g>
		<path fill="#414042" d="M1.179,23.765l-0.125-0.057c1.724-3.941,3.548-11.542,3.565-11.618l0.134,0.031
			C4.733,12.198,2.906,19.81,1.179,23.765z"/>
	</g>
	<g>
		<path fill="#414042" d="M-0.99,24.345c0,0-0.033,0.32-0.036,0.881c0,0.281,0.006,0.622,0.031,1.01
			c0.013,0.195,0.03,0.401,0.055,0.62c0.008,0.109,0.022,0.219,0.034,0.334c0.009,0.114,0.025,0.23,0.041,0.349
			c0.065,0.475,0.165,0.984,0.315,1.512c0.152,0.524,0.36,1.066,0.647,1.588c0.29,0.52,0.666,1.016,1.13,1.432
			c0.461,0.417,1.018,0.75,1.608,0.964c0.152,0.047,0.306,0.098,0.458,0.143c0.153,0.031,0.306,0.074,0.46,0.098
			c0.312,0.046,0.626,0.073,0.938,0.058c0.623-0.02,1.23-0.158,1.787-0.369c0.555-0.215,1.062-0.497,1.516-0.8
			c0.456-0.306,0.858-0.634,1.215-0.955c0.178-0.16,0.341-0.323,0.497-0.474c0.158-0.15,0.305-0.299,0.438-0.438
			c0.271-0.282,0.495-0.539,0.674-0.755c0.357-0.431,0.54-0.697,0.54-0.697s-0.168,0.273-0.503,0.727
			c-0.169,0.225-0.379,0.495-0.635,0.792c-0.127,0.149-0.267,0.307-0.418,0.466c-0.153,0.16-0.322,0.318-0.503,0.48
			c-0.357,0.325-0.768,0.657-1.227,0.966c-0.462,0.31-0.979,0.597-1.546,0.814c-0.567,0.217-1.189,0.359-1.831,0.382
			c-0.319,0.014-0.642-0.016-0.963-0.062c-0.161-0.025-0.32-0.067-0.479-0.102c-0.155-0.044-0.307-0.095-0.459-0.144
			c-0.616-0.224-1.181-0.563-1.658-0.991c-0.479-0.428-0.862-0.938-1.158-1.468c-0.294-0.533-0.504-1.086-0.66-1.618
			c-0.153-0.533-0.253-1.051-0.318-1.529c-0.033-0.24-0.062-0.472-0.076-0.69c-0.013-0.221-0.019-0.43-0.021-0.625
			c-0.005-0.394,0.007-0.736,0.023-1.017C-1.041,24.661-0.99,24.345-0.99,24.345z"/>
	</g>
	<g>
		<path fill="#414042" d="M4.965,7.727C4.258,7.368,5.514,4.606,5.66,4.293c0.816-1.84,2.067-2.348,2.121-2.369l0.05,0.128
			C7.817,2.055,6.575,2.563,5.783,4.348C5.255,5.489,4.583,7.38,5.027,7.606L4.965,7.727z"/>
	</g>
	<g>
		
			<ellipse transform="matrix(0.8254 -0.5646 0.5646 0.8254 0.2295 11.6072)" fill="#F1F2F2" cx="18.88" cy="5.433" rx="0.524" ry="1.127"/>
	</g>
	<g>
		
			<ellipse transform="matrix(0.2694 0.963 -0.963 0.2694 7.5913 -6.8423)" fill="#F1F2F2" cx="8.305" cy="1.582" rx="0.523" ry="1.127"/>
	</g>
	<g>
		
			<linearGradient id="SVGID_1_" gradientUnits="userSpaceOnUse" x1="-0.0063" y1="-2.9019" x2="-0.0063" y2="5.2964" gradientTransform="matrix(0.9396 0.3422 0.3422 -0.9396 10.7263 11.3926)">
			<stop  offset="0" style="stop-color:#414042"/>
			<stop  offset="1" style="stop-color:#939598"/>
		</linearGradient>
		<path fill="url(#SVGID_1_)" d="M10.015,13.326c-3.092-1.054-5.498-1.107-5.498-1.107c0.59-1.821,1.144-5.206,1.144-5.206
			c2.513-2.216,6.873-0.599,6.873-0.599s4.379,1.566,4.876,4.878c0,0-1.753,2.948-2.472,4.722
			C14.938,16.015,13.062,14.508,10.015,13.326z"/>
	</g>
	<g>
		
			<linearGradient id="SVGID_2_" gradientUnits="userSpaceOnUse" x1="-0.0063" y1="-21.4404" x2="-0.0063" y2="-14.7671" gradientTransform="matrix(0.9396 0.3422 0.3422 -0.9396 10.7263 11.3926)">
			<stop  offset="0" style="stop-color:#939598"/>
			<stop  offset="1" style="stop-color:#414042"/>
		</linearGradient>
		<path fill="url(#SVGID_2_)" d="M3.383,31.536c-2.886-1.027-3.92-2.979-3.92-2.979l1.613-4.963
			c0.919,0.869,4.396,2.207,4.396,2.207s3.523,1.211,4.784,1.136l-1.955,4.839C8.301,31.776,6.253,32.605,3.383,31.536z"/>
	</g>
</g>
</svg>
