<?xml version="1.0" encoding="utf-8"?>
<!-- Generator: Adobe Illustrator 16.0.0, SVG Export Plug-In . SVG Version: 6.00 Build 0)  -->
<!DOCTYPE svg PUBLIC "-//W3C//DTD SVG 1.1//EN" "http://www.w3.org/Graphics/SVG/1.1/DTD/svg11.dtd">
<svg version="1.1" id="Layer_1" xmlns="http://www.w3.org/2000/svg" xmlns:xlink="http://www.w3.org/1999/xlink" x="0px" y="0px"
	 width="29.53px" height="35px" viewBox="-6.351 0 29.53 35" enable-background="new -6.351 0 29.53 35" xml:space="preserve">
<g>
	<g>
		<path fill="#1C1C1C" d="M-2.681,30.742l-0.896-0.756l-0.11,0.13c-1.196-1.099-1.861-2.032-1.861-2.032
			c-3.238-4.283,4.376-9.793,4.376-9.793c2.886-4.268,8.377-9.958,8.377-9.958C7.063,8.094,5.67,7.677,5.67,7.677
			c0.432-0.53,1.776-0.393,1.776-0.393c2.166-3.059,3.584-4.247,3.584-4.247c3.849-3.604,8.747,1.096,8.747,1.096
			s5.457,4.04,2.548,8.438c0,0-0.931,1.598-3.584,4.247c0,0,0.36,1.304-0.088,1.818c0,0-0.645-1.304-0.904-1.403
			c0,0-4.688,6.369-8.41,9.931c0,0-4.151,8.432-8.92,5.958c0,0-1.03-0.498-2.315-1.491l0.11-0.131l-0.896-0.757L-2.681,30.742z"/>
	</g>
	<g>
		<polygon fill="#808285" points="17.997,16.429 14.227,19.802 12.097,22.325 9.967,24.849 7.275,29.134 		"/>
	</g>
	<g>
		<path fill="#414042" d="M6.725,26.941c2.571-3.466,8.224-8.829,8.282-8.883l0.092,0.099c-0.055,0.054-5.701,5.412-8.264,8.866
			L6.725,26.941z"/>
	</g>
	<g>
		<path fill="#414042" d="M18.73,15.703l0.073-0.115c0.417,0.272,1.723-1.25,2.449-2.275c1.156-1.576,0.908-2.964,0.905-2.977
			l0.135-0.026c0.011,0.06,0.263,1.458-0.931,3.083C21.164,13.674,19.393,16.136,18.73,15.703z"/>
	</g>
	<g>
		<path fill="#414042" d="M17.69,17.2c0.158-0.296,0.431-0.473,0.552-0.542l-0.154-0.303l0.031-0.035
			c2.504-2.722,3.373-7.186,3.381-7.231c0.49-2.435-2.091-4.463-2.116-4.483c-0.03-0.026-2.464-2.229-4.779-1.338
			c-0.044,0.017-4.299,1.624-6.562,4.548l-0.03,0.038L7.687,7.749C7.64,7.883,7.513,8.181,7.246,8.386L7.162,8.278
			c0.31-0.24,0.413-0.628,0.414-0.633l0.019-0.069l0.368,0.117c2.295-2.931,6.55-4.538,6.593-4.552
			c2.396-0.922,4.892,1.337,4.916,1.359c0.024,0.018,2.669,2.098,2.163,4.614c-0.008,0.043-0.876,4.508-3.381,7.263l0.178,0.343
			l-0.064,0.03c-0.005,0.001-0.372,0.17-0.555,0.514L17.69,17.2z"/>
	</g>
	<g>
		<polygon fill="#808285" points="7.956,7.953 5.263,12.238 3.134,14.761 1.004,17.284 -2.767,20.658 		"/>
	</g>
	<g opacity="0.8">
		
			<ellipse transform="matrix(-0.969 0.247 -0.247 -0.969 -4.4623 51.1331)" fill="#ED1C24" cx="-5.439" cy="25.287" rx="0.524" ry="1.128"/>
	</g>
	<g opacity="0.8">
		
			<ellipse transform="matrix(0.0797 -0.9968 0.9968 0.0797 -29.5338 33.1039)" fill="#ED1C24" cx="3.16" cy="32.546" rx="0.524" ry="1.127"/>
	</g>
	<g>
		<path fill="#414042" d="M-0.531,20.86l-0.098-0.096c2.976-3.107,7.307-9.613,7.35-9.679l0.115,0.076
			C6.791,11.227,2.453,17.743-0.531,20.86z"/>
	</g>
	<g>
		<path fill="#414042" d="M-2.767,20.658c0,0-0.141,0.289-0.337,0.814c-0.098,0.264-0.208,0.586-0.319,0.959
			c-0.055,0.188-0.11,0.387-0.162,0.601c-0.03,0.105-0.055,0.213-0.083,0.325c-0.031,0.11-0.056,0.226-0.082,0.342
			c-0.102,0.468-0.185,0.98-0.225,1.527c-0.038,0.545-0.03,1.125,0.061,1.714c0.093,0.587,0.275,1.183,0.568,1.733
			c0.289,0.55,0.698,1.055,1.178,1.459c0.127,0.097,0.253,0.197,0.381,0.292c0.133,0.082,0.261,0.175,0.398,0.25
			c0.278,0.15,0.562,0.284,0.86,0.377c0.592,0.196,1.209,0.275,1.805,0.27c0.595-0.011,1.168-0.102,1.699-0.229
			c0.534-0.13,1.024-0.3,1.47-0.479c0.222-0.089,0.431-0.187,0.63-0.273c0.2-0.087,0.389-0.176,0.562-0.261
			c0.352-0.172,0.651-0.335,0.893-0.477c0.484-0.281,0.748-0.469,0.748-0.469s-0.252,0.199-0.723,0.51
			c-0.236,0.152-0.526,0.334-0.869,0.524c-0.171,0.097-0.356,0.196-0.553,0.293C4.934,30.56,4.72,30.65,4.495,30.74
			c-0.448,0.182-0.947,0.353-1.484,0.484c-0.541,0.131-1.124,0.223-1.732,0.231c-0.607,0.008-1.24-0.072-1.851-0.272
			c-0.304-0.097-0.597-0.235-0.883-0.391c-0.142-0.079-0.277-0.173-0.414-0.26C-2,30.438-2.124,30.339-2.25,30.24
			c-0.501-0.423-0.915-0.937-1.215-1.502c-0.302-0.566-0.486-1.177-0.582-1.777c-0.093-0.602-0.1-1.192-0.062-1.746
			c0.04-0.553,0.125-1.073,0.228-1.545c0.052-0.237,0.105-0.464,0.167-0.675c0.063-0.212,0.13-0.409,0.196-0.594
			c0.131-0.371,0.261-0.688,0.372-0.946C-2.923,20.938-2.767,20.658-2.767,20.658z"/>
	</g>
	<g>
		<path fill="#414042" d="M8.548,7.109c-0.54-0.581,1.59-2.741,1.835-2.984c1.4-1.446,2.75-1.492,2.808-1.494l0.003,0.137
			c-0.015-0.002-1.355,0.047-2.714,1.451C9.592,5.108,8.309,6.651,8.648,7.017L8.548,7.109z"/>
	</g>
	<g>
		
			<ellipse transform="matrix(0.9693 -0.2458 0.2458 0.9693 -1.7091 5.806)" fill="#F1F2F2" cx="22.402" cy="9.749" rx="0.524" ry="1.127"/>
	</g>
	<g>
		
			<ellipse transform="matrix(-0.0784 0.9969 -0.9969 -0.0784 17.3659 -11.0723)" fill="#F1F2F2" cx="13.801" cy="2.491" rx="0.523" ry="1.127"/>
	</g>
	<g>
		
			<linearGradient id="SVGID_1_" gradientUnits="userSpaceOnUse" x1="-0.0068" y1="-2.9023" x2="-0.0068" y2="5.2959" gradientTransform="matrix(0.7642 0.645 0.645 -0.7642 12.6937 12.5353)">
			<stop  offset="0" style="stop-color:#414042"/>
			<stop  offset="1" style="stop-color:#939598"/>
		</linearGradient>
		<path fill="url(#SVGID_1_)" d="M11.36,14.105c-2.54-2.055-4.78-2.934-4.78-2.934c1.181-1.506,2.867-4.493,2.867-4.493
			c3.122-1.215,6.658,1.805,6.658,1.805s3.571,2.979,2.896,6.26c0,0-2.661,2.163-3.947,3.581
			C15.055,18.325,13.813,16.265,11.36,14.105z"/>
	</g>
	<g>
		
			<linearGradient id="SVGID_2_" gradientUnits="userSpaceOnUse" x1="-0.0068" y1="-21.4409" x2="-0.0068" y2="-14.7676" gradientTransform="matrix(0.7642 0.645 0.645 -0.7642 12.6937 12.5353)">
			<stop  offset="0" style="stop-color:#939598"/>
			<stop  offset="1" style="stop-color:#414042"/>
		</linearGradient>
		<path fill="url(#SVGID_2_)" d="M-1.139,28.916c-2.355-1.959-2.654-4.146-2.654-4.146l3.225-4.104
			c0.563,1.133,3.366,3.586,3.366,3.586s2.891,2.351,4.1,2.715l-3.502,3.869C3.395,30.836,1.187,30.908-1.139,28.916z"/>
	</g>
</g>
</svg>
