<?xml version="1.0" encoding="utf-8"?>
<!-- Generator: Adobe Illustrator 16.0.0, SVG Export Plug-In . SVG Version: 6.00 Build 0)  -->
<!DOCTYPE svg PUBLIC "-//W3C//DTD SVG 1.1//EN" "http://www.w3.org/Graphics/SVG/1.1/DTD/svg11.dtd">
<svg version="1.1" id="Layer_1" xmlns="http://www.w3.org/2000/svg" xmlns:xlink="http://www.w3.org/1999/xlink" x="0px" y="0px"
	 width="34.821px" height="35px" viewBox="-8.834 0 34.821 35" enable-background="new -8.834 0 34.821 35" xml:space="preserve">
<g>
	<g>
		<path fill="#1C1C1C" d="M25.822,17.389l0.01,1.174l0.169-0.001c-0.057,1.623-0.335,2.733-0.335,2.733
			c-1.15,5.247-10.286,3.039-10.286,3.039C10.26,24.914,2.366,24.44,2.366,24.44c-0.088,0.265,0.501,1.593,0.501,1.593
			c-0.684,0.017-1.453-1.095-1.453-1.095c-3.733,0.343-5.558,0.036-5.558,0.036c-5.241-0.582-4.853-7.361-4.853-7.361
			s-0.477-6.772,4.758-7.419c0,0,1.82-0.333,5.556-0.037c0,0,0.758-1.121,1.441-1.115c0,0-0.573,1.338-0.48,1.6
			c0,0,7.888-0.576,13.015-0.063c0,0,9.104-2.325,10.324,2.907c0,0,0.291,1.107,0.371,2.729l-0.172,0.003l0.009,1.171H25.822z"/>
	</g>
	<g>
		<polygon fill="#808285" points="1.505,10.978 6.52,11.65 9.822,11.63 13.124,11.607 18.13,10.868 		"/>
	</g>
	<g>
		<path fill="#414042" d="M16.821,12.711C12.517,13.009,4.766,12.2,4.688,12.19l0.016-0.134c0.076,0.006,7.818,0.816,12.109,0.519
			L16.821,12.711z"/>
	</g>
	<g>
		<path fill="#414042" d="M0.477,10.891l-0.133,0.02c-0.064-0.495-2.071-0.498-3.322-0.383c-1.949,0.145-2.842,1.236-2.851,1.246
			l-0.107-0.086c0.039-0.046,0.936-1.146,2.948-1.296C-2.645,10.359,0.377,10.107,0.477,10.891z"/>
	</g>
	<g>
		<path fill="#414042" d="M2.292,10.709c-0.33,0.072-0.64-0.021-0.771-0.067l-0.13,0.313l-0.046-0.001
			c-3.697-0.133-7.654,2.107-7.695,2.131c-2.167,1.209-2.032,4.49-2.032,4.523c0.001,0.039-0.093,3.32,2.088,4.5
			c0.042,0.024,4.028,2.214,7.723,2.032l0.048-0.002l0.132,0.315c0.132-0.052,0.443-0.149,0.771-0.079l-0.025,0.134
			c-0.384-0.079-0.747,0.095-0.751,0.097L1.54,24.637l-0.151-0.355c-3.718,0.16-7.706-2.028-7.744-2.053
			c-2.259-1.221-2.164-4.586-2.161-4.62c-0.003-0.03-0.141-3.391,2.1-4.642c0.037-0.022,3.997-2.264,7.717-2.15l0.145-0.359
			l0.064,0.028c0.005,0.004,0.371,0.173,0.751,0.089L2.292,10.709z"/>
	</g>
	<g>
		<polygon fill="#808285" points="1.59,24.117 6.597,23.379 9.898,23.357 13.199,23.336 18.216,24.008 		"/>
	</g>
	<g opacity="0.8">
		
			<ellipse transform="matrix(0.8171 0.5765 -0.5765 0.8171 17.5686 -9.317)" fill="#ED1C24" cx="23.469" cy="23.031" rx="0.523" ry="1.127"/>
	</g>
	<g opacity="0.8">
		<path fill="#ED1C24" d="M22.974,12.086c-0.367-0.504-0.474-1.051-0.238-1.222c0.234-0.168,0.72,0.102,1.087,0.607
			c0.365,0.502,0.472,1.047,0.237,1.218C23.824,12.859,23.338,12.59,22.974,12.086z"/>
	</g>
	<g>
		<path fill="#414042" d="M16.916,22.178l-0.009,0.137c-4.296-0.243-12.055,0.694-12.134,0.704l-0.016-0.135
			C4.835,22.875,12.607,21.937,16.916,22.178z"/>
	</g>
	<g>
		<path fill="#414042" d="M18.216,24.008c0,0,0.311-0.079,0.837-0.271c0.265-0.098,0.582-0.223,0.937-0.383
			c0.179-0.08,0.366-0.167,0.562-0.267c0.101-0.045,0.198-0.095,0.302-0.147c0.104-0.048,0.207-0.104,0.312-0.16
			c0.422-0.228,0.864-0.496,1.307-0.821c0.438-0.325,0.875-0.709,1.264-1.161c0.386-0.449,0.72-0.977,0.947-1.557
			c0.231-0.577,0.35-1.216,0.344-1.844c-0.009-0.16-0.014-0.321-0.025-0.48c-0.024-0.153-0.037-0.312-0.067-0.465
			c-0.068-0.309-0.151-0.613-0.273-0.898c-0.235-0.577-0.577-1.099-0.969-1.546c-0.395-0.446-0.836-0.822-1.278-1.144
			c-0.444-0.321-0.893-0.583-1.317-0.805c-0.212-0.112-0.423-0.208-0.618-0.302c-0.196-0.097-0.386-0.182-0.564-0.258
			c-0.357-0.155-0.678-0.277-0.941-0.368c-0.529-0.187-0.843-0.264-0.843-0.264s0.315,0.062,0.857,0.218
			c0.271,0.08,0.596,0.183,0.965,0.319c0.184,0.066,0.379,0.144,0.58,0.23c0.204,0.087,0.411,0.19,0.627,0.303
			c0.43,0.223,0.884,0.49,1.332,0.813c0.45,0.326,0.899,0.709,1.302,1.166c0.401,0.458,0.751,0.99,0.996,1.585
			c0.124,0.292,0.209,0.606,0.276,0.924c0.032,0.16,0.049,0.324,0.071,0.485c0.013,0.16,0.019,0.319,0.025,0.479
			c0.004,0.657-0.116,1.304-0.352,1.9c-0.234,0.598-0.578,1.134-0.972,1.597c-0.398,0.462-0.843,0.852-1.288,1.182
			c-0.446,0.329-0.896,0.604-1.322,0.831c-0.214,0.115-0.42,0.223-0.621,0.312c-0.203,0.09-0.396,0.169-0.578,0.237
			c-0.369,0.142-0.693,0.25-0.961,0.332C18.529,23.947,18.216,24.008,18.216,24.008z"/>
	</g>
	<g>
		<path fill="#414042" d="M0.562,24.215c-0.088,0.788-3.115,0.573-3.459,0.544c-2.01-0.124-2.922-1.12-2.961-1.162l0.103-0.093
			c0.008,0.013,0.917,1.002,2.867,1.12c1.252,0.099,3.26,0.069,3.316-0.425L0.562,24.215z"/>
	</g>
	<g>
		
			<ellipse transform="matrix(-0.8172 -0.5763 0.5763 -0.8172 -18.5911 18.0447)" fill="#F1F2F2" cx="-6.434" cy="11.97" rx="0.524" ry="1.128"/>
	</g>
	<g>
		
			<ellipse transform="matrix(0.809 -0.5878 0.5878 0.809 -14.8668 0.6971)" fill="#F1F2F2" cx="-6.361" cy="23.224" rx="0.523" ry="1.127"/>
	</g>
	<g>
		
			<linearGradient id="SVGID_1_" gradientUnits="userSpaceOnUse" x1="-0.0039" y1="-2.9014" x2="-0.0039" y2="5.2969" gradientTransform="matrix(-0.0065 -1 -1 0.0065 1.9938 17.5409)">
			<stop  offset="0" style="stop-color:#414042"/>
			<stop  offset="1" style="stop-color:#939598"/>
		</linearGradient>
		<path fill="url(#SVGID_1_)" d="M4.054,17.531C4.143,20.796,4.93,23.07,4.93,23.07c-1.911,0.081-5.277,0.74-5.277,0.74
			c-2.952-1.583-2.956-6.233-2.956-6.233s-0.057-4.65,2.875-6.27c0,0,3.375,0.617,5.288,0.673
			C4.859,11.981,4.101,14.263,4.054,17.531z"/>
	</g>
	<g>
		
			<linearGradient id="SVGID_2_" gradientUnits="userSpaceOnUse" x1="-0.0039" y1="-21.4399" x2="-0.0039" y2="-14.7656" gradientTransform="matrix(-0.0065 -1 -1 0.0065 1.9938 17.5409)">
			<stop  offset="0" style="stop-color:#939598"/>
			<stop  offset="1" style="stop-color:#414042"/>
		</linearGradient>
		<path fill="url(#SVGID_2_)" d="M23.433,17.405c0.042,3.062-1.426,4.713-1.426,4.713l-5.215,0.214
			c0.496-1.163,0.538-4.888,0.538-4.888s-0.092-3.723-0.603-4.88l5.217,0.146C21.944,12.71,23.436,14.342,23.433,17.405z"/>
	</g>
</g>
</svg>
