<?xml version="1.0" encoding="utf-8"?>
<!-- Generator: Adobe Illustrator 16.0.0, SVG Export Plug-In . SVG Version: 6.00 Build 0)  -->
<!DOCTYPE svg PUBLIC "-//W3C//DTD SVG 1.1//EN" "http://www.w3.org/Graphics/SVG/1.1/DTD/svg11.dtd">
<svg version="1.1" id="Layer_1" xmlns="http://www.w3.org/2000/svg" xmlns:xlink="http://www.w3.org/1999/xlink" x="0px" y="0px"
	 width="34.821px" height="35px" viewBox="-8.834 0 34.821 35" enable-background="new -8.834 0 34.821 35" xml:space="preserve">
<g>
	<g>
		<path fill="#1C1C1C" d="M17.457,32.331l-1.004,0.609l0.087,0.144c-1.422,0.782-2.52,1.111-2.52,1.111
			c-5.096,1.696-7.874-7.283-7.874-7.283c-3.117-4.103-6.75-11.127-6.75-11.127c-0.272,0.06-1.112,1.245-1.112,1.245
			c-0.364-0.579,0.197-1.808,0.197-1.808c-2.204-3.033-2.874-4.757-2.874-4.757C-6.573,5.664-0.55,2.53-0.55,2.53
			s5.574-3.875,8.809,0.292c0,0,1.216,1.394,2.875,4.755c0,0,1.351,0.079,1.695,0.667c0,0-1.443,0.192-1.621,0.406
			c0,0,4.531,6.483,6.714,11.15c0,0,6.655,6.633,2.784,10.358c0,0-0.803,0.816-2.154,1.714l-0.091-0.146l-1.002,0.606L17.457,32.331
			z"/>
	</g>
	<g>
		<polygon fill="#808285" points="10.524,8.158 12.513,12.811 14.22,15.637 15.928,18.462 19.125,22.386 		"/>
	</g>
	<g>
		<path fill="#414042" d="M16.871,22.204c-2.458-3.547-5.729-10.619-5.76-10.692l0.123-0.055c0.034,0.068,3.299,7.135,5.751,10.669
			L16.871,22.204z"/>
	</g>
	<g>
		<path fill="#414042" d="M10.073,7.229L9.987,7.125c0.393-0.309-0.632-2.034-1.371-3.051C7.496,2.474,6.101,2.266,6.088,2.263
			l0.02-0.136c0.059,0.01,1.463,0.218,2.622,1.871C8.933,4.275,10.696,6.743,10.073,7.229z"/>
	</g>
	<g>
		<path fill="#414042" d="M11.158,8.696c-0.23-0.246-0.309-0.561-0.337-0.697l-0.336,0.048l-0.023-0.04
			C8.686,4.762,4.736,2.508,4.695,2.486C2.547,1.242-0.203,3.037-0.231,3.055c-0.033,0.021-2.9,1.619-2.798,4.096
			c0,0.049,0.159,4.594,2.205,7.676l0.026,0.04l-0.204,0.275c0.112,0.087,0.355,0.304,0.462,0.622l-0.128,0.046
			c-0.128-0.371-0.463-0.593-0.468-0.596l-0.059-0.039l0.228-0.311c-2.04-3.113-2.2-7.659-2.198-7.704
			C-3.271,4.595-0.331,2.954-0.3,2.94c0.023-0.018,2.841-1.856,5.062-0.571c0.038,0.021,3.99,2.275,5.795,5.53l0.384-0.06
			l0.008,0.07c-0.001,0.007,0.041,0.407,0.308,0.691L11.158,8.696z"/>
	</g>
	<g>
		<polygon fill="#808285" points="-0.721,14.952 2.475,18.877 4.183,21.702 5.889,24.528 7.879,29.182 		"/>
	</g>
	<g opacity="0.8">
		
			<ellipse transform="matrix(-0.0774 0.997 -0.997 -0.0774 45.3849 24.3939)" fill="#ED1C24" cx="11.406" cy="33.196" rx="0.524" ry="1.128"/>
	</g>
	<g opacity="0.8">
		<path fill="#ED1C24" d="M20.556,27.17c0.246-0.573,0.66-0.944,0.929-0.83c0.264,0.116,0.28,0.672,0.034,1.245
			c-0.244,0.569-0.658,0.94-0.925,0.826S20.31,27.741,20.556,27.17z"/>
	</g>
	<g>
		<path fill="#414042" d="M8.786,27.128l-0.122,0.063C6.675,23.375,1.9,17.189,1.852,17.125l0.108-0.083
			C2.006,17.105,6.79,23.303,8.786,27.128z"/>
	</g>
	<g>
		<path fill="#414042" d="M7.879,29.182c0,0,0.227,0.227,0.662,0.58c0.219,0.178,0.49,0.387,0.808,0.608
			c0.16,0.113,0.331,0.23,0.517,0.347c0.089,0.063,0.182,0.122,0.28,0.184c0.095,0.065,0.195,0.125,0.298,0.187
			c0.411,0.246,0.868,0.489,1.374,0.702c0.504,0.211,1.057,0.39,1.645,0.492c0.583,0.102,1.207,0.119,1.822,0.018
			c0.614-0.096,1.223-0.322,1.76-0.647c0.133-0.09,0.269-0.177,0.399-0.268c0.119-0.1,0.249-0.192,0.366-0.297
			c0.229-0.216,0.448-0.443,0.63-0.694c0.376-0.497,0.649-1.057,0.834-1.623c0.181-0.567,0.279-1.139,0.328-1.684
			c0.048-0.545,0.044-1.064,0.018-1.543c-0.012-0.24-0.037-0.47-0.058-0.686c-0.017-0.219-0.04-0.425-0.066-0.618
			c-0.05-0.386-0.108-0.724-0.165-0.996c-0.11-0.551-0.204-0.86-0.204-0.86s0.107,0.304,0.251,0.85
			c0.069,0.272,0.146,0.604,0.219,0.992c0.037,0.191,0.071,0.398,0.1,0.615c0.029,0.221,0.047,0.45,0.061,0.694
			c0.028,0.483,0.031,1.01-0.018,1.56c-0.05,0.554-0.149,1.137-0.336,1.716c-0.188,0.579-0.466,1.151-0.852,1.667
			c-0.188,0.256-0.414,0.489-0.652,0.71c-0.12,0.109-0.253,0.207-0.38,0.309c-0.131,0.093-0.265,0.18-0.398,0.268
			c-0.562,0.339-1.18,0.567-1.812,0.67c-0.635,0.104-1.271,0.083-1.87-0.018c-0.601-0.106-1.163-0.289-1.674-0.503
			c-0.512-0.215-0.979-0.461-1.392-0.711c-0.207-0.125-0.405-0.246-0.585-0.374c-0.182-0.129-0.348-0.254-0.5-0.375
			c-0.31-0.245-0.569-0.469-0.776-0.655C8.091,29.42,7.879,29.182,7.879,29.182z"/>
	</g>
	<g>
		<path fill="#414042" d="M-1.331,14.12c-0.722,0.329-2.086-2.382-2.237-2.694c-0.922-1.79-0.533-3.083-0.517-3.138l0.132,0.041
			c-0.006,0.014-0.392,1.301,0.504,3.037c0.556,1.125,1.609,2.836,2.062,2.632L-1.331,14.12z"/>
	</g>
	<g>
		<path fill="#F1F2F2" d="M5.65,1.321c0.622,0.048,1.106,0.322,1.084,0.611C6.71,2.22,6.19,2.417,5.569,2.366
			c-0.622-0.046-1.105-0.32-1.083-0.61C4.509,1.468,5.031,1.273,5.65,1.321z"/>
	</g>
	<g>
		<path fill="#F1F2F2" d="M-3.541,7.871C-3.787,8.442-4.204,8.814-4.465,8.7c-0.267-0.113-0.282-0.67-0.037-1.243
			c0.246-0.57,0.66-0.94,0.925-0.829C-3.312,6.745-3.294,7.301-3.541,7.871z"/>
	</g>
	<g>
		
			<linearGradient id="SVGID_1_" gradientUnits="userSpaceOnUse" x1="-0.0024" y1="-2.9038" x2="-0.0024" y2="5.2954" gradientTransform="matrix(0.8559 -0.5172 -0.5172 -0.8559 5.135 11.9341)">
			<stop  offset="0" style="stop-color:#414042"/>
			<stop  offset="1" style="stop-color:#939598"/>
		</linearGradient>
		<path fill="url(#SVGID_1_)" d="M6.198,13.7c-2.76,1.747-4.311,3.587-4.311,3.587c-1.047-1.6-3.335-4.156-3.335-4.156
			C-1.6,9.785,2.394,7.402,2.394,7.402S6.36,4.975,9.252,6.665c0,0,1.196,3.216,2.127,4.888C11.379,11.553,9.03,12.068,6.198,13.7z"
			/>
	</g>
	<g>
		
			<linearGradient id="SVGID_2_" gradientUnits="userSpaceOnUse" x1="-0.0024" y1="-21.4414" x2="-0.0024" y2="-14.7671" gradientTransform="matrix(0.8559 -0.5172 -0.5172 -0.8559 5.135 11.9341)">
			<stop  offset="0" style="stop-color:#939598"/>
			<stop  offset="1" style="stop-color:#414042"/>
		</linearGradient>
		<path fill="url(#SVGID_2_)" d="M16.222,30.286c-2.611,1.603-4.779,1.186-4.779,1.186l-2.852-4.37
			c1.252-0.169,4.475-2.039,4.475-2.039s3.152-1.983,3.885-3.015l2.544,4.557C19.494,26.604,18.854,28.722,16.222,30.286z"/>
	</g>
</g>
</svg>
