<?xml version="1.0" encoding="utf-8"?>
<!-- Generator: Adobe Illustrator 16.0.0, SVG Export Plug-In . SVG Version: 6.00 Build 0)  -->
<!DOCTYPE svg PUBLIC "-//W3C//DTD SVG 1.1//EN" "http://www.w3.org/Graphics/SVG/1.1/DTD/svg11.dtd">
<svg version="1.1" id="Layer_1" xmlns="http://www.w3.org/2000/svg" xmlns:xlink="http://www.w3.org/1999/xlink" x="0px" y="0px"
	 width="34.821px" height="35px" viewBox="-8.834 0 34.821 35" enable-background="new -8.834 0 34.821 35" xml:space="preserve">
<g>
	<g>
		<path fill="#1C1C1C" d="M16.95,2.377l1.025,0.571l0.082-0.148c1.384,0.851,2.213,1.641,2.213,1.641
			c3.995,3.591-2.434,10.446-2.434,10.446c-2.023,4.738-6.332,11.37-6.332,11.37c0.187,0.207,1.633,0.351,1.633,0.351
			c-0.323,0.603-1.669,0.724-1.669,0.724c-1.545,3.416-2.711,4.852-2.711,4.852c-3.094,4.271-8.797,0.587-8.797,0.587
			s-6.125-2.928-4.104-7.8c0,0,0.609-1.747,2.71-4.851c0,0-0.601-1.213-0.259-1.804c0,0,0.881,1.159,1.155,1.207
			c0,0,3.392-7.145,6.368-11.35c0,0,2.473-9.066,7.625-7.545c0,0,1.106,0.293,2.556,1.024l-0.082,0.15l1.022,0.571L16.95,2.377z"/>
	</g>
	<g>
		<polygon fill="#808285" points="-0.628,20.361 2.432,16.332 4.044,13.451 5.654,10.567 7.481,5.849 		"/>
	</g>
	<g>
		<path fill="#414042" d="M8.439,7.897c-1.866,3.891-6.396,10.232-6.443,10.295l-0.109-0.08C1.93,18.05,6.456,11.716,8.315,7.837
			L8.439,7.897z"/>
	</g>
	<g>
		<path fill="#414042" d="M-1.211,21.213l-0.049,0.126c-0.462-0.188-1.455,1.556-1.973,2.7c-0.837,1.767-0.328,3.082-0.324,3.094
			l-0.127,0.052c-0.021-0.057-0.535-1.38,0.328-3.204C-3.215,23.666-1.942,20.913-1.211,21.213z"/>
	</g>
	<g>
		<path fill="#414042" d="M-0.474,19.545c-0.1,0.322-0.334,0.546-0.439,0.638l0.208,0.268l-0.024,0.04
			c-1.94,3.149-1.945,7.697-1.944,7.743c-0.019,2.482,2.902,3.984,2.931,4c0.035,0.019,2.842,1.72,4.945,0.405
			c0.042-0.025,3.913-2.411,5.579-5.714l0.021-0.043l0.34,0.041c0.021-0.141,0.089-0.459,0.312-0.709l0.104,0.088
			c-0.258,0.295-0.286,0.695-0.286,0.701l-0.005,0.07l-0.384-0.044c-1.695,3.312-5.567,5.7-5.607,5.722
			c-2.176,1.362-5.057-0.382-5.084-0.4c-0.028-0.013-3.02-1.552-3.001-4.118c-0.001-0.043,0.003-4.593,1.939-7.772l-0.241-0.304
			l0.056-0.041c0.006-0.003,0.333-0.237,0.448-0.609L-0.474,19.545z"/>
	</g>
	<g>
		<polygon fill="#808285" points="10.841,26.773 12.67,22.055 14.28,19.172 15.891,16.291 18.952,12.26 		"/>
	</g>
	<g opacity="0.8">
		
			<ellipse transform="matrix(0.9044 -0.4266 0.4266 0.9044 -1.0977 9.5171)" fill="#ED1C24" cx="20.695" cy="7.209" rx="0.524" ry="1.128"/>
	</g>
	<g opacity="0.8">
		
			<ellipse transform="matrix(0.1109 0.9938 -0.9938 0.1109 11.3742 -9.2798)" fill="#ED1C24" cx="10.874" cy="1.717" rx="0.524" ry="1.128"/>
	</g>
	<g>
		<path fill="#414042" d="M16.719,12.487l0.114,0.075c-2.331,3.616-5.346,10.827-5.376,10.9l-0.125-0.053
			C11.362,23.338,14.383,16.115,16.719,12.487z"/>
	</g>
	<g>
		<path fill="#414042" d="M18.952,12.26c0,0,0.084-0.31,0.177-0.863c0.045-0.278,0.093-0.616,0.13-1.003
			c0.018-0.195,0.034-0.401,0.045-0.62c0.01-0.11,0.015-0.219,0.021-0.335c0.01-0.114,0.012-0.232,0.015-0.351
			c0.011-0.479-0.005-0.997-0.069-1.542c-0.066-0.542-0.185-1.11-0.386-1.671c-0.201-0.558-0.494-1.108-0.887-1.593
			c-0.388-0.485-0.885-0.904-1.434-1.208c-0.144-0.071-0.286-0.146-0.43-0.215c-0.146-0.054-0.29-0.122-0.438-0.17
			c-0.302-0.094-0.607-0.171-0.916-0.206c-0.618-0.081-1.24-0.041-1.823,0.079c-0.582,0.124-1.128,0.322-1.625,0.547
			c-0.499,0.229-0.947,0.489-1.351,0.749c-0.202,0.129-0.39,0.265-0.567,0.389C9.232,4.369,9.064,4.492,8.91,4.609
			C8.599,4.844,8.335,5.062,8.125,5.247C7.702,5.614,7.479,5.849,7.479,5.849s0.21-0.244,0.613-0.638
			C8.295,5.016,8.546,4.783,8.846,4.53c0.149-0.127,0.312-0.259,0.487-0.392C9.51,4.004,9.701,3.875,9.905,3.743
			c0.406-0.264,0.863-0.527,1.365-0.757c0.506-0.231,1.061-0.432,1.656-0.557c0.596-0.123,1.231-0.165,1.87-0.084
			c0.315,0.037,0.63,0.117,0.939,0.215c0.155,0.051,0.306,0.118,0.457,0.177c0.146,0.068,0.287,0.142,0.43,0.214
			c0.573,0.32,1.076,0.746,1.479,1.244c0.404,0.499,0.701,1.062,0.909,1.634c0.205,0.574,0.324,1.153,0.393,1.703
			c0.065,0.55,0.082,1.078,0.069,1.56c-0.005,0.243-0.014,0.476-0.035,0.694c-0.022,0.221-0.049,0.427-0.079,0.62
			c-0.059,0.39-0.125,0.726-0.186,1C19.054,11.957,18.952,12.26,18.952,12.26z"/>
	</g>
	<g>
		<path fill="#414042" d="M10.419,27.715c0.642,0.466-1.039,2.992-1.234,3.277c-1.1,1.687-2.417,1.988-2.472,2.001l-0.03-0.135
			c0.015-0.001,1.324-0.304,2.39-1.94c0.703-1.041,1.669-2.801,1.267-3.095L10.419,27.715z"/>
	</g>
	<g>
		
			<ellipse transform="matrix(-0.9049 0.4257 -0.4257 -0.9049 4.7985 54.4404)" fill="#F1F2F2" cx="-3.683" cy="27.756" rx="0.524" ry="1.128"/>
	</g>
	<g>
		
			<ellipse transform="matrix(-0.112 -0.9937 0.9937 -0.112 -26.2104 43.0702)" fill="#F1F2F2" cx="6.14" cy="33.247" rx="0.523" ry="1.127"/>
	</g>
	<g>
		
			<linearGradient id="SVGID_1_" gradientUnits="userSpaceOnUse" x1="-0.0029" y1="-2.9009" x2="-0.0029" y2="5.2983" gradientTransform="matrix(-0.8729 -0.4879 -0.4879 0.8729 5.3211 23.1768)">
			<stop  offset="0" style="stop-color:#414042"/>
			<stop  offset="1" style="stop-color:#939598"/>
		</linearGradient>
		<path fill="url(#SVGID_1_)" d="M6.329,21.38c2.884,1.534,5.25,1.972,5.25,1.972c-0.872,1.702-1.961,4.955-1.961,4.955
			c-2.834,1.786-6.88-0.506-6.88-0.506s-4.072-2.246-4.034-5.595c0,0,2.203-2.631,3.195-4.267C1.899,17.939,3.51,19.726,6.329,21.38
			z"/>
	</g>
	<g>
		
			<linearGradient id="SVGID_2_" gradientUnits="userSpaceOnUse" x1="-0.0029" y1="-21.439" x2="-0.0029" y2="-14.7656" gradientTransform="matrix(-0.8729 -0.4879 -0.4879 0.8729 5.3211 23.1768)">
			<stop  offset="0" style="stop-color:#939598"/>
			<stop  offset="1" style="stop-color:#414042"/>
		</linearGradient>
		<path fill="url(#SVGID_2_)" d="M15.784,4.463c2.685,1.475,3.395,3.566,3.395,3.566l-2.387,4.641
			c-0.768-1.005-3.986-2.881-3.986-2.881S9.522,8.033,8.265,7.905l2.702-4.465C10.967,3.44,13.122,2.949,15.784,4.463z"/>
	</g>
</g>
</svg>
