<?xml version="1.0" encoding="utf-8"?>
<!-- Generator: Adobe Illustrator 16.0.0, SVG Export Plug-In . SVG Version: 6.00 Build 0)  -->
<!DOCTYPE svg PUBLIC "-//W3C//DTD SVG 1.1//EN" "http://www.w3.org/Graphics/SVG/1.1/DTD/svg11.dtd">
<svg version="1.1" id="Layer_1" xmlns="http://www.w3.org/2000/svg" xmlns:xlink="http://www.w3.org/1999/xlink" x="0px" y="0px"
	 width="34.821px" height="35px" viewBox="-8.834 0 34.821 35" enable-background="new -8.834 0 34.821 35" xml:space="preserve">
<g>
	<g>
		<path fill="#1C1C1C" d="M23.369,8.613l0.604,1.007l0.146-0.087c0.774,1.428,1.099,2.526,1.099,2.526
			c1.671,5.105-7.321,7.838-7.321,7.838c-4.118,3.097-11.161,6.694-11.161,6.694c0.059,0.272,1.24,1.118,1.24,1.118
			c-0.581,0.361-1.808-0.206-1.808-0.206c-3.043,2.189-4.771,2.852-4.771,2.852c-4.812,2.157-7.917-3.881-7.917-3.881
			s-3.847-5.594,0.335-8.808c0,0,1.399-1.21,4.769-2.851c0,0,0.085-1.351,0.676-1.692c0,0,0.185,1.444,0.398,1.622
			c0,0,6.505-4.499,11.183-6.659c0,0,6.666-6.623,10.372-2.734c0,0,0.812,0.807,1.704,2.163l-0.146,0.089l0.602,1.005L23.369,8.613z
			"/>
	</g>
	<g>
		<polygon fill="#808285" points="-0.838,15.427 3.824,13.462 6.659,11.77 9.493,10.075 13.432,6.897 		"/>
	</g>
	<g>
		<path fill="#414042" d="M13.239,9.15c-3.559,2.441-10.647,5.676-10.72,5.708l-0.055-0.124C2.532,14.7,9.615,11.47,13.162,9.036
			L13.239,9.15z"/>
	</g>
	<g>
		<path fill="#414042" d="M-1.768,15.875l-0.105,0.085c-0.307-0.394-2.037,0.622-3.057,1.355c-1.606,1.114-1.822,2.507-1.824,2.52
			l-0.136-0.02c0.01-0.06,0.225-1.463,1.883-2.613C-4.729,17-2.252,15.25-1.768,15.875z"/>
	</g>
	<g>
		<path fill="#414042" d="M-0.297,14.797c-0.248,0.229-0.562,0.306-0.699,0.333l0.047,0.336l-0.041,0.022
			c-3.253,1.761-5.526,5.7-5.549,5.741c-1.254,2.142,0.527,4.9,0.544,4.929c0.021,0.033,1.604,2.908,4.083,2.818
			c0.049-0.001,4.594-0.137,7.686-2.168l0.04-0.026l0.274,0.205c0.088-0.111,0.306-0.354,0.624-0.459l0.046,0.128
			c-0.371,0.127-0.595,0.46-0.598,0.465L6.122,27.18L5.812,26.95c-3.122,2.024-7.669,2.162-7.714,2.16
			c-2.566,0.095-4.191-2.854-4.206-2.884c-0.018-0.024-1.842-2.851-0.546-5.065c0.021-0.038,2.295-3.979,5.559-5.769l-0.057-0.383
			l0.069-0.008c0.007,0.001,0.407-0.039,0.692-0.304L-0.297,14.797z"/>
	</g>
	<g>
		<polygon fill="#808285" points="5.902,26.707 9.842,23.53 12.676,21.836 15.509,20.143 20.173,18.177 		"/>
	</g>
	<g opacity="0.8">
		
			<ellipse transform="matrix(0.9967 0.0817 -0.0817 0.9967 1.2786 -1.9274)" fill="#ED1C24" cx="24.204" cy="14.669" rx="0.523" ry="1.128"/>
	</g>
	<g opacity="0.8">
		
			<ellipse transform="matrix(-0.3998 0.9166 -0.9166 -0.3998 30.3942 -9.884)" fill="#ED1C24" cx="18.433" cy="5.009" rx="0.524" ry="1.129"/>
	</g>
	<g>
		<path fill="#414042" d="M18.124,17.259l0.062,0.122c-3.824,1.971-10.035,6.715-10.098,6.764l-0.082-0.108
			C8.068,23.99,14.289,19.237,18.124,17.259z"/>
	</g>
	<g>
		<path fill="#414042" d="M20.173,18.177c0,0,0.228-0.227,0.584-0.659c0.178-0.218,0.388-0.487,0.612-0.805
			c0.113-0.16,0.23-0.33,0.349-0.515c0.063-0.09,0.122-0.183,0.186-0.28c0.065-0.094,0.125-0.195,0.188-0.297
			c0.248-0.41,0.493-0.866,0.709-1.371c0.213-0.502,0.395-1.055,0.5-1.641c0.104-0.583,0.125-1.207,0.026-1.823
			c-0.094-0.614-0.315-1.225-0.64-1.763c-0.089-0.133-0.175-0.27-0.265-0.401c-0.1-0.12-0.19-0.25-0.295-0.366
			c-0.215-0.232-0.441-0.452-0.691-0.635c-0.495-0.378-1.055-0.654-1.619-0.841c-0.566-0.184-1.138-0.284-1.682-0.337
			c-0.546-0.051-1.064-0.049-1.544-0.024c-0.239,0.011-0.47,0.035-0.686,0.054c-0.218,0.016-0.425,0.039-0.617,0.063
			c-0.387,0.048-0.725,0.105-0.998,0.161c-0.551,0.107-0.86,0.2-0.86,0.2s0.304-0.106,0.85-0.247
			c0.273-0.068,0.606-0.145,0.993-0.214c0.192-0.036,0.399-0.069,0.617-0.097c0.22-0.028,0.45-0.044,0.693-0.057
			c0.483-0.026,1.011-0.026,1.561,0.025c0.554,0.052,1.135,0.155,1.713,0.344c0.578,0.19,1.149,0.472,1.663,0.86
			c0.255,0.189,0.487,0.416,0.707,0.655c0.108,0.122,0.206,0.254,0.308,0.382c0.092,0.131,0.178,0.266,0.265,0.4
			c0.337,0.564,0.562,1.183,0.661,1.815c0.102,0.634,0.077,1.271-0.027,1.87c-0.108,0.6-0.294,1.161-0.51,1.671
			c-0.218,0.51-0.467,0.976-0.718,1.387c-0.126,0.208-0.249,0.405-0.377,0.584c-0.13,0.18-0.256,0.346-0.378,0.498
			c-0.246,0.309-0.471,0.567-0.66,0.774C20.412,17.965,20.173,18.177,20.173,18.177z"/>
	</g>
	<g>
		<path fill="#414042" d="M5.066,27.312c0.324,0.724-2.394,2.074-2.705,2.224c-1.794,0.913-3.086,0.518-3.141,0.501l0.041-0.132
			c0.014,0.007,1.299,0.397,3.039-0.489c1.129-0.551,2.844-1.595,2.642-2.05L5.066,27.312z"/>
	</g>
	<g>
		
			<ellipse transform="matrix(-0.9966 -0.082 0.082 -0.9966 -15.9923 39.9665)" fill="#F1F2F2" cx="-7.176" cy="20.312" rx="0.524" ry="1.128"/>
	</g>
	<g>
		
			<ellipse transform="matrix(0.3988 -0.917 0.917 0.3988 -28.3278 16.7321)" fill="#F1F2F2" cx="-1.403" cy="29.971" rx="0.523" ry="1.127"/>
	</g>
	<g>
		
			<linearGradient id="SVGID_1_" gradientUnits="userSpaceOnUse" x1="-0.0054" y1="-2.9004" x2="-0.0054" y2="5.2988" gradientTransform="matrix(-0.513 -0.8584 -0.8584 0.513 2.913 20.8341)">
			<stop  offset="0" style="stop-color:#414042"/>
			<stop  offset="1" style="stop-color:#939598"/>
		</linearGradient>
		<path fill="url(#SVGID_1_)" d="M4.683,19.781c1.733,2.769,3.566,4.328,3.566,4.328c-1.605,1.04-4.172,3.316-4.172,3.316
			c-3.347,0.134-5.71-3.871-5.71-3.871s-2.408-3.979-0.704-6.862c0,0,3.222-1.181,4.898-2.103
			C2.561,14.59,3.065,16.941,4.683,19.781z"/>
	</g>
	<g>
		
			<linearGradient id="SVGID_2_" gradientUnits="userSpaceOnUse" x1="-0.0049" y1="-21.439" x2="-0.0049" y2="-14.7646" gradientTransform="matrix(-0.513 -0.8584 -0.8584 0.513 2.913 20.8341)">
			<stop  offset="0" style="stop-color:#939598"/>
			<stop  offset="1" style="stop-color:#414042"/>
		</linearGradient>
		<path fill="url(#SVGID_2_)" d="M21.318,9.839c1.59,2.618,1.162,4.785,1.162,4.785l-4.385,2.831
			c-0.163-1.254-2.017-4.486-2.017-4.486S14.11,9.808,13.084,9.07l4.569-2.521C17.653,6.549,19.767,7.199,21.318,9.839z"/>
	</g>
</g>
</svg>
