<?xml version="1.0" encoding="utf-8"?>
<!-- Generator: Adobe Illustrator 16.0.0, SVG Export Plug-In . SVG Version: 6.00 Build 0)  -->
<!DOCTYPE svg PUBLIC "-//W3C//DTD SVG 1.1//EN" "http://www.w3.org/Graphics/SVG/1.1/DTD/svg11.dtd">
<svg version="1.1" id="Layer_1" xmlns="http://www.w3.org/2000/svg" xmlns:xlink="http://www.w3.org/1999/xlink" x="0px" y="0px"
	 width="34.821px" height="35px" viewBox="-8.834 0 34.821 35" enable-background="new -8.834 0 34.821 35" xml:space="preserve">
<g>
	<g>
		<path fill="#1C1C1C" d="M8.326,0.175l1.173-0.013L9.497-0.007c1.623,0.052,2.735,0.325,2.735,0.325
			c5.25,1.134,3.073,10.276,3.073,10.276c0.597,5.117,0.149,13.014,0.149,13.014c0.264,0.087,1.591-0.506,1.591-0.506
			c0.019,0.684-1.09,1.456-1.09,1.456c0.355,3.732,0.056,5.558,0.056,5.558c-0.565,5.243-7.345,4.877-7.345,4.877
			s-6.771,0.5-7.436-4.732c0,0-0.338-1.819-0.055-5.557c0,0-1.124-0.754-1.12-1.437c0,0,1.34,0.568,1.602,0.474
			c0,0-0.603-7.885-0.107-13.014c0,0-2.355-9.098,2.873-10.335c0,0,1.105-0.294,2.727-0.38l0.003,0.171l1.171-0.012L8.326,0.175z"/>
	</g>
	<g>
		<polygon fill="#808285" points="1.995,24.514 2.651,19.497 2.62,16.195 2.586,12.893 1.83,7.89 		"/>
	</g>
	<g>
		<path fill="#414042" d="M3.678,9.192c0.312,4.304-0.472,12.057-0.481,12.136l-0.134-0.016c0.005-0.075,0.79-7.821,0.478-12.111
			L3.678,9.192z"/>
	</g>
	<g>
		<path fill="#414042" d="M1.912,25.542l0.02,0.134c-0.495,0.066-0.491,2.073-0.372,3.323c0.151,1.949,1.246,2.838,1.255,2.847
			L2.73,31.954c-0.046-0.039-1.15-0.933-1.306-2.944C1.391,28.667,1.128,25.646,1.912,25.542z"/>
	</g>
	<g>
		<path fill="#414042" d="M1.724,23.729c0.073,0.329-0.019,0.64-0.065,0.771l0.314,0.129l-0.001,0.047
			c-0.121,3.696,2.133,7.647,2.156,7.687c1.216,2.164,4.497,2.018,4.53,2.017c0.04-0.001,3.321,0.082,4.494-2.104
			c0.023-0.042,2.199-4.035,2.006-7.729l-0.002-0.048l0.315-0.133c-0.053-0.133-0.151-0.442-0.082-0.771l0.134,0.025
			c-0.078,0.384,0.097,0.745,0.1,0.75l0.03,0.063l-0.354,0.152c0.173,3.718-2.003,7.713-2.026,7.751
			c-1.213,2.263-4.58,2.179-4.612,2.177c-0.03,0.003-3.392,0.151-4.649-2.085c-0.022-0.037-2.277-3.988-2.176-7.71l-0.36-0.144
			l0.028-0.063c0.004-0.006,0.172-0.372,0.086-0.752L1.724,23.729z"/>
	</g>
	<g>
		<polygon fill="#808285" points="15.134,24.386 14.379,19.382 14.346,16.079 14.313,12.779 14.97,7.76 		"/>
	</g>
	<g opacity="0.8">
		
			<ellipse transform="matrix(0.5733 -0.8194 0.8194 0.5733 3.9071 12.5217)" fill="#ED1C24" cx="13.975" cy="2.51" rx="0.524" ry="1.128"/>
	</g>
	<g opacity="0.8">
		<path fill="#ED1C24" d="M3.031,3.042C2.529,3.41,1.982,3.519,1.811,3.284c-0.169-0.233,0.1-0.72,0.603-1.088
			c0.5-0.368,1.046-0.476,1.217-0.242S3.534,2.676,3.031,3.042z"/>
	</g>
	<g>
		<path fill="#414042" d="M13.144,9.066l0.137,0.008c-0.229,4.296,0.734,12.053,0.745,12.131l-0.135,0.017
			C13.881,21.145,12.917,13.375,13.144,9.066z"/>
	</g>
	<g>
		<path fill="#414042" d="M14.97,7.76c0,0-0.081-0.311-0.275-0.836C14.596,6.66,14.47,6.343,14.31,5.988
			c-0.081-0.178-0.169-0.365-0.269-0.561c-0.046-0.1-0.097-0.197-0.148-0.301c-0.049-0.104-0.105-0.207-0.162-0.312
			c-0.229-0.421-0.499-0.863-0.826-1.304c-0.326-0.438-0.711-0.873-1.164-1.26c-0.452-0.384-0.979-0.717-1.561-0.942
			C9.602,1.08,8.962,0.964,8.335,0.972c-0.16,0.009-0.321,0.015-0.48,0.026C7.702,1.024,7.543,1.037,7.39,1.068
			C7.082,1.136,6.778,1.221,6.493,1.345C5.916,1.582,5.396,1.925,4.95,2.318C4.505,2.714,4.13,3.157,3.811,3.6
			C3.491,4.046,3.23,4.495,3.01,4.921C2.898,5.133,2.804,5.344,2.711,5.54C2.614,5.736,2.53,5.926,2.454,6.104
			C2.3,6.463,2.18,6.783,2.089,7.048C1.905,7.577,1.828,7.891,1.828,7.891s0.062-0.316,0.216-0.858
			c0.079-0.27,0.181-0.597,0.316-0.965c0.066-0.185,0.142-0.38,0.228-0.582c0.086-0.204,0.189-0.412,0.301-0.627
			c0.222-0.43,0.487-0.886,0.809-1.335c0.324-0.452,0.706-0.902,1.161-1.306c0.456-0.402,0.987-0.754,1.581-1.001
			c0.292-0.125,0.605-0.211,0.923-0.28c0.16-0.033,0.323-0.049,0.484-0.073c0.161-0.014,0.32-0.02,0.479-0.027
			c0.657-0.006,1.305,0.113,1.901,0.345c0.599,0.232,1.136,0.575,1.6,0.967c0.463,0.396,0.854,0.839,1.187,1.283
			c0.33,0.445,0.606,0.896,0.835,1.32c0.116,0.213,0.224,0.42,0.314,0.62c0.09,0.203,0.169,0.396,0.239,0.578
			c0.143,0.368,0.252,0.692,0.335,0.96C14.907,7.447,14.97,7.76,14.97,7.76z"/>
	</g>
	<g>
		<path fill="#414042" d="M15.235,25.412c0.788,0.086,0.583,3.113,0.556,3.458c-0.117,2.01-1.11,2.926-1.152,2.964l-0.093-0.102
			c0.013-0.009,0.998-0.921,1.11-2.871c0.094-1.253,0.059-3.26-0.437-3.315L15.235,25.412z"/>
	</g>
	<g>
		
			<ellipse transform="matrix(-0.5742 0.8187 -0.8187 -0.5742 31.3121 48.6148)" fill="#F1F2F2" cx="3.014" cy="32.45" rx="0.524" ry="1.127"/>
	</g>
	<g>
		
			<ellipse transform="matrix(-0.5906 -0.807 0.807 -0.5906 -3.4044 62.9495)" fill="#F1F2F2" cx="14.267" cy="32.338" rx="0.523" ry="1.127"/>
	</g>
	<g>
		
			<linearGradient id="SVGID_1_" gradientUnits="userSpaceOnUse" x1="-0.0049" y1="-2.9023" x2="-0.0049" y2="5.2959" gradientTransform="matrix(-1 0.0098 0.0098 1 8.5559 24.0037)">
			<stop  offset="0" style="stop-color:#414042"/>
			<stop  offset="1" style="stop-color:#939598"/>
		</linearGradient>
		<path fill="url(#SVGID_1_)" d="M8.54,21.943c3.265-0.1,5.536-0.895,5.536-0.895c0.088,1.91,0.758,5.274,0.758,5.274
			C13.261,29.281,8.611,29.3,8.611,29.3s-4.65,0.072-6.28-2.854c0,0,0.606-3.377,0.656-5.29C2.987,21.156,5.271,21.907,8.54,21.943z
			"/>
	</g>
	<g>
		
			<linearGradient id="SVGID_2_" gradientUnits="userSpaceOnUse" x1="-0.0054" y1="-21.4399" x2="-0.0054" y2="-14.7666" gradientTransform="matrix(-1 0.0098 0.0098 1 8.5559 24.0037)">
			<stop  offset="0" style="stop-color:#939598"/>
			<stop  offset="1" style="stop-color:#414042"/>
		</linearGradient>
		<path fill="url(#SVGID_2_)" d="M8.349,2.565c3.062-0.053,4.718,1.41,4.718,1.41l0.232,5.213c-1.166-0.491-4.891-0.521-4.891-0.521
			S4.686,8.772,3.53,9.286l0.129-5.217C3.659,4.068,5.286,2.573,8.349,2.565z"/>
	</g>
</g>
</svg>
